<?xml version="1.0" encoding="UTF-8" standalone="no"?>
<!-- Created with Inkscape (http://www.inkscape.org/) -->

<svg
   xmlns:dc="http://purl.org/dc/elements/1.1/"
   xmlns:cc="http://creativecommons.org/ns#"
   xmlns:rdf="http://www.w3.org/1999/02/22-rdf-syntax-ns#"
   xmlns:svg="http://www.w3.org/2000/svg"
   xmlns="http://www.w3.org/2000/svg"
   version="1.1"
   width="390"
   height="175"
   id="svg2">
  <metadata
     id="metadata3994">
    <rdf:RDF>
      <cc:Work
         rdf:about="">
        <dc:format>image/svg+xml</dc:format>
        <dc:type
           rdf:resource="http://purl.org/dc/dcmitype/StillImage" />
        <dc:title></dc:title>
      </cc:Work>
    </rdf:RDF>
  </metadata>
  <defs
     id="defs4" />
  <path
     d="m 43.422412,63.29291 c -0.559574,-7.8341 -0.563159,-15.655774 -1.019993,-23.459875 24.569253,-2.119582 64.039981,-2.039988 95.879561,-2.039988 0.9065,7.056996 0.51,20.283673 0.51,23.969903 -33.15994,1.01009 -63.603488,2.41247 -95.369568,1.52996 z"
     id="path2987"
     style="color:#000000;fill:#ececec;fill-opacity:1;fill-rule:nonzero;stroke:#000000;stroke-width:1.5;stroke-linecap:round;stroke-linejoin:round;stroke-miterlimit:4;stroke-opacity:1;stroke-dasharray:none;stroke-dashoffset:0;marker:none;visibility:visible;display:inline;overflow:visible;enable-background:accumulate" />
  <path
     d="m 212.57761,48.502989 c -19.30337,0 -1.24988,1.642603 -20.44402,0.51088 -1.0003,20.912751 1.20386,49.232291 1.20386,66.881521 -6.84693,-0.87591 -40.09919,-0.0467 -45.67852,0.51084"
     id="path2991"
     style="color:#000000;fill:none;stroke:#000000;stroke-width:1.5;stroke-linecap:round;stroke-linejoin:round;stroke-miterlimit:4;stroke-opacity:1;stroke-dasharray:none;stroke-dashoffset:0;marker:none;visibility:visible;display:inline;overflow:visible;enable-background:accumulate" />
  <path
     d="m 310.98665,60.74295 c -32.25326,0 -66.10206,0.54239 -97.91955,-1.01999 -0.33169,-3.31691 0.63531,-17.442392 1.01999,-23.969909 31.69875,-3.453091 65.17194,1.019998 96.77014,1.019998 1.62205,8.021067 0.93033,15.960714 0.12942,23.969901"
     id="path2993"
     style="color:#000000;fill:#ececec;fill-opacity:1;fill-rule:nonzero;stroke:#000000;stroke-width:1.5;stroke-linecap:round;stroke-linejoin:round;stroke-miterlimit:4;stroke-opacity:1;stroke-dasharray:none;stroke-dashoffset:0;marker:none;visibility:visible;display:inline;overflow:visible;enable-background:accumulate" />
  <text
     x="118.85144"
     y="55.663437"
     id="text2995"
     xml:space="preserve"
     style="font-size:15px;font-style:normal;font-weight:normal;text-align:center;line-height:125%;letter-spacing:0px;word-spacing:0px;text-anchor:middle;fill:#000000;fill-opacity:1;stroke:none;font-family:Sans"><tspan
       x="90.378433"
       y="55.663437"
       id="tspan2997"
       style="font-size:15px;text-align:center;text-anchor:middle">đợi chơi</tspan></text>
  <path
     d="m 203.25656,39.580093 c 2.0354,3.268127 6.45978,5.466612 9.5529,9.075215 -2.7187,3.230019 -5.70896,4.042914 -8.5976,6.209421"
     id="path3001"
     style="color:#000000;fill:none;stroke:#000000;stroke-width:1.5;stroke-linecap:round;stroke-linejoin:round;stroke-miterlimit:4;stroke-opacity:1;stroke-dasharray:none;stroke-dashoffset:0;marker:none;visibility:visible;display:inline;overflow:visible;enable-background:accumulate" />
  <text
     x="273.50894"
     y="53.109055"
     id="text3000"
     xml:space="preserve"
     style="font-size:15px;font-style:normal;font-weight:normal;text-align:center;line-height:125%;letter-spacing:0px;word-spacing:0px;text-anchor:middle;fill:#000000;fill-opacity:1;stroke:none;font-family:Sans"><tspan
       x="258.95441"
       y="53.109055"
       id="tspan3002"
       style="font-size:15px;text-align:center;text-anchor:middle">chơi</tspan></text>
  <path
     d="m 207.30119,118.52416 c 9.28125,-8.40793 36.08979,-24.74539 50.93951,-32.38779 13.49332,7.80217 39.80973,21.62139 51.48668,32.00084 -11.89048,10.49925 -36.27648,22.41261 -50.7642,30.13281 -17.26261,-7.24162 -40.00861,-19.0245 -51.66199,-29.74586 z"
     id="path3006"
     style="color:#000000;fill:#ececec;fill-opacity:1;fill-rule:nonzero;stroke:#000000;stroke-width:1.5;stroke-linecap:round;stroke-linejoin:round;stroke-miterlimit:4;stroke-opacity:1;stroke-dasharray:none;stroke-dashoffset:0;marker:none;visibility:visible;display:inline;overflow:visible;enable-background:accumulate" />
  <path
     d="m 259.32442,60.4882 c -0.40871,8.23506 -0.12912,19.48237 -0.72248,26.00938"
     id="path3008"
     style="color:#000000;fill:#cccccc;fill-opacity:1;fill-rule:nonzero;stroke:#000000;stroke-width:1.5;stroke-linecap:round;stroke-linejoin:round;stroke-miterlimit:4;stroke-opacity:1;stroke-dasharray:none;stroke-dashoffset:0;marker:none;visibility:visible;display:inline;overflow:visible;enable-background:accumulate" />
  <path
     d="m 251.73834,74.9378 c 2.92071,2.26764 4.28671,8.50423 6.8636,10.11486 2.45155,-2.90518 4.91273,-6.75506 6.86359,-9.03108"
     id="path3010"
     style="color:#000000;fill:none;stroke:#000000;stroke-width:1.5;stroke-linecap:round;stroke-linejoin:round;stroke-miterlimit:4;stroke-opacity:1;stroke-dasharray:none;stroke-dashoffset:0;marker:none;visibility:visible;display:inline;overflow:visible;enable-background:accumulate" />
  <text
     x="256.23941"
     y="118.44977"
     id="text3012"
     xml:space="preserve"
     style="font-size:15px;font-style:normal;font-weight:normal;text-align:center;line-height:110.00000238%;letter-spacing:0px;word-spacing:0px;text-anchor:middle;fill:#000000;fill-opacity:1;stroke:none;font-family:Sans"><tspan
       x="256.23941"
       y="118.44977"
       id="tspan3014">nghĩ chơi</tspan><tspan
       x="256.23941"
       y="134.94977"
       id="tspan3016">chua?</tspan></text>
  <path
     d="M 41.90818,115.89539 C 61.884485,102.41357 73.546589,95.8704 91.973749,84.22124 c 21.437781,9.00019 42.194931,22.49971 55.685181,32.18491 -13.43409,10.9631 -34.83218,24.96641 -50.065575,34.73945 C 74.936507,137.06316 60.040964,128.72503 41.90818,115.89539 z"
     id="path3027"
     style="color:#000000;fill:#ececec;fill-opacity:1;fill-rule:nonzero;stroke:#000000;stroke-width:1.5;stroke-linecap:round;stroke-linejoin:round;stroke-miterlimit:4;stroke-opacity:1;stroke-dasharray:none;stroke-dashoffset:0;marker:none;visibility:visible;display:inline;overflow:visible;enable-background:accumulate" />
  <path
     d="M 91.462877,36.199131 C 90.092459,30.032275 90.416396,15.841455 90.441134,8.611988 166.00165,5.97653 309.73877,4.073254 385.42053,6.057621 c 3.49442,34.944255 1.69957,125.318949 -0.39085,162.457659 -10.09448,0.89248 -113.0679,1.18893 -125.17069,2.04352 l -0.31883,-22.47848"
     id="path3029"
     style="color:#000000;fill:none;stroke:#000000;stroke-width:1.5;stroke-linecap:round;stroke-linejoin:round;stroke-miterlimit:4;stroke-opacity:1;stroke-dasharray:none;stroke-dashoffset:0;marker:none;visibility:visible;display:inline;overflow:visible;enable-background:accumulate" />
  <path
     d="m 91.462877,62.25368 c 0,7.55536 0,17.03712 0,20.43488"
     id="path3031"
     style="color:#000000;fill:#cccccc;fill-opacity:1;fill-rule:nonzero;stroke:#000000;stroke-width:1.51461565;stroke-linecap:round;stroke-linejoin:round;stroke-miterlimit:4;stroke-opacity:1;stroke-dasharray:none;stroke-dashoffset:0;marker:none;visibility:visible;display:inline;overflow:visible;enable-background:accumulate" />
  <path
     d="m 82.778032,76.04725 c 4.082968,2.50086 5.149449,5.65817 8.608517,8.68483 2.999618,-2.59788 7.38946,-5.46671 9.272041,-7.66308"
     id="path3033"
     style="color:#000000;fill:none;stroke:#000000;stroke-width:1.5;stroke-linecap:round;stroke-linejoin:round;stroke-miterlimit:4;stroke-opacity:1;stroke-dasharray:none;stroke-dashoffset:0;marker:none;visibility:visible;display:inline;overflow:visible;enable-background:accumulate" />
  <path
     d="m 83.799784,29.046909 c 3.758533,2.951632 4.715211,5.930712 7.075893,8.684845 2.056085,-4.296394 8.369074,-7.618944 10.804663,-9.706588"
     id="path3035"
     style="color:#000000;fill:none;stroke:#000000;stroke-width:1.5;stroke-linecap:round;stroke-linejoin:round;stroke-miterlimit:4;stroke-opacity:1;stroke-dasharray:none;stroke-dashoffset:0;marker:none;visibility:visible;display:inline;overflow:visible;enable-background:accumulate" />
  <text
     x="312.59073"
     y="110.90514"
     id="text3041"
     xml:space="preserve"
     style="font-size:15px;font-style:normal;font-weight:normal;line-height:125%;letter-spacing:0px;word-spacing:0px;fill:#000000;fill-opacity:1;stroke:none;font-family:Sans"><tspan
       x="312.59073"
       y="110.90514"
       id="tspan3043"
       style="font-size:15px">sai</tspan></text>
  <text
     x="15.994826"
     y="111.85941"
     id="text3045"
     xml:space="preserve"
     style="font-size:15px;font-style:normal;font-weight:normal;line-height:125%;letter-spacing:0px;word-spacing:0px;fill:#000000;fill-opacity:1;stroke:none;font-family:Sans"><tspan
       x="15.994826"
       y="111.85941"
       id="tspan3047"
       style="font-size:15px">sai</tspan></text>
  <path
     d="M 42.419054,115.89539 C 31.531583,115.80207 17.027258,116.91715 7.6796776,116.91715 6.3613188,95.17083 4.9852994,76.30826 7.3214536,53.057941 20.126543,53.172957 33.114007,51.893862 41.90818,51.014478"
     id="path3049"
     style="color:#000000;fill:none;stroke:#000000;stroke-width:1.20670784;stroke-linecap:round;stroke-linejoin:round;stroke-miterlimit:4;stroke-opacity:1;stroke-dasharray:none;stroke-dashoffset:0;marker:none;visibility:visible;display:inline;overflow:visible;enable-background:accumulate" />
  <path
     d="m 31.690717,41.307865 c 3.190821,2.169934 8.306433,7.362744 11.239209,9.195733 -3.894662,0.126367 -9.721555,5.634522 -11.750082,7.663042"
     id="path3051"
     style="color:#000000;fill:none;stroke:#000000;stroke-width:1.5;stroke-linecap:round;stroke-linejoin:round;stroke-miterlimit:4;stroke-opacity:1;stroke-dasharray:none;stroke-dashoffset:0;marker:none;visibility:visible;display:inline;overflow:visible;enable-background:accumulate" />
  <text
     x="95.804886"
     y="120.49326"
     id="text3053"
     xml:space="preserve"
     style="font-size:15px;font-style:normal;font-weight:normal;text-align:center;line-height:125%;letter-spacing:0px;word-spacing:0px;text-anchor:middle;fill:#000000;fill-opacity:1;stroke:none;font-family:Sans"><tspan
       x="95.804886"
       y="120.49326"
       id="tspan3055">chơi chua?</tspan></text>
  <text
     x="149.62755"
     y="109.30508"
     id="text3057"
     xml:space="preserve"
     style="font-size:15px;font-style:normal;font-weight:normal;line-height:125%;letter-spacing:0px;word-spacing:0px;fill:#000000;fill-opacity:1;stroke:none;font-family:Sans"><tspan
       x="149.62755"
       y="109.30508"
       id="tspan3059"
       style="font-size:15px">đúng </tspan></text>
  <path
     d="m 319.82318,55.10146 c -0.80249,0.45408 -5.61642,-5.2753 -7.66309,-7.663093 2.36099,-3.012538 5.54437,-4.223863 8.68485,-5.619622"
     id="path3063"
     style="color:#000000;fill:none;stroke:#000000;stroke-width:1.5;stroke-linecap:round;stroke-linejoin:round;stroke-miterlimit:4;stroke-opacity:1;stroke-dasharray:none;stroke-dashoffset:0;marker:none;visibility:visible;display:inline;overflow:visible;enable-background:accumulate" />
  <path
     d="m 309.60572,117.42791 c 11.74135,0.9496 23.97512,-0.51076 35.25025,-0.51076 0.89009,-22.06594 0,-45.27638 0,-67.435312 -10.64115,-1.510685 -21.58039,-1.079416 -32.18501,-2.043471"
     id="path3065"
     style="color:#000000;fill:none;stroke:#000000;stroke-width:1.5;stroke-linecap:round;stroke-linejoin:round;stroke-miterlimit:4;stroke-opacity:1;stroke-dasharray:none;stroke-dashoffset:0;marker:none;visibility:visible;display:inline;overflow:visible;enable-background:accumulate" />
  <text
     x="265.55789"
     y="163.7825"
     id="text3094"
     xml:space="preserve"
     style="font-size:15px;font-style:normal;font-weight:normal;line-height:125%;letter-spacing:0px;word-spacing:0px;fill:#000000;fill-opacity:1;stroke:none;font-family:Sans"><tspan
       x="265.55789"
       y="163.7825"
       id="tspan3096"
       style="font-size:15px">đúng </tspan></text>
</svg>
