<?xml version="1.0" encoding="UTF-8" standalone="no"?>
<!-- Created with Inkscape (http://www.inkscape.org/) -->

<svg
   xmlns:dc="http://purl.org/dc/elements/1.1/"
   xmlns:cc="http://creativecommons.org/ns#"
   xmlns:rdf="http://www.w3.org/1999/02/22-rdf-syntax-ns#"
   xmlns:svg="http://www.w3.org/2000/svg"
   xmlns="http://www.w3.org/2000/svg"
   version="1.1"
   width="725"
   height="295"
   id="svg3025">
  <defs
     id="defs3027" />
  <g
     transform="translate(0,-757.36218)"
     id="layer1">
    <path
       d="m 24.928572,913.2193 c 12.702683,-6.3703 36.98704,-23.65259 52.857143,-33.5714 19.125705,8.48117 39.489025,23.72405 54.642855,32.1429 -14.0742,13.9258 -40.49258,31.0276 -52.142856,37.5 C 60.925943,937.2924 39.828075,925.7805 24.928572,913.2193 z"
       id="path3912"
       style="color:#000000;fill:#e6e6e6;fill-opacity:1;fill-rule:nonzero;stroke:#000000;stroke-width:1.5;stroke-linecap:round;stroke-linejoin:round;stroke-miterlimit:4;stroke-opacity:1;stroke-dasharray:none;stroke-dashoffset:0;marker:none;visibility:visible;display:inline;overflow:visible;enable-background:accumulate" />
    <path
       d="m 33.714285,813.71932 c -2.347502,7.32869 -0.940576,34.70349 -1.428571,40.07143 28.739797,0.23164 60.875656,2.48387 85.714286,0 0.5492,-9.28955 1.42857,-30.91494 1.42857,-39.71428 -24.02332,0.28238 -68.861736,-1.15783 -85.714285,-0.35715 z"
       id="path3033"
       style="color:#000000;fill:#e6e6e6;fill-opacity:1;fill-rule:nonzero;stroke:#000000;stroke-width:1.5;stroke-linecap:round;stroke-linejoin:round;stroke-miterlimit:4;stroke-opacity:1;stroke-dasharray:none;stroke-dashoffset:0;marker:none;visibility:visible;display:inline;overflow:visible;enable-background:accumulate" />
    <path
       d="m 207.28571,813.36218 c -1.16172,8.09406 -0.71428,35.19635 -0.71428,41.14286 27.38741,0.11344 45.42027,0.28669 78,-0.14286 0,-8.80952 -0.50508,-32.6292 -0.50508,-41.43872 -26.53599,-0.8104 -47.00016,-1.33788 -76.78064,0.43872 z"
       id="path3035"
       style="color:#000000;fill:#e6e6e6;fill-opacity:1;fill-rule:nonzero;stroke:#000000;stroke-width:1.5;stroke-linecap:round;stroke-linejoin:round;stroke-miterlimit:4;stroke-opacity:1;stroke-dasharray:none;stroke-dashoffset:0;marker:none;visibility:visible;display:inline;overflow:visible;enable-background:accumulate" />
    <path
       d="M 371.42857,817.79075 C 369.35233,824.41949 370,842.68284 370,845.36218 c 30.61669,-0.98002 85.99037,0 109.85714,0 1.35017,-8.11844 0,-20.08152 0,-28.28571 -32.90542,-0.32155 -76.16293,0.0273 -108.42857,0.71428 z"
       id="path3037"
       style="color:#000000;fill:#e6e6e6;fill-opacity:1;fill-rule:nonzero;stroke:#000000;stroke-width:1.5;stroke-linecap:round;stroke-linejoin:round;stroke-miterlimit:4;stroke-opacity:1;stroke-dasharray:none;stroke-dashoffset:0;marker:none;visibility:visible;display:inline;overflow:visible;enable-background:accumulate" />
    <path
       d="m 584.14286,816.36218 c 2.25358,7.4247 2.14285,21.87088 2.14285,25 34.45085,1.25816 71.18082,-1.43811 104.28572,1.57143 1.02389,-9.47026 0.71429,-19.30427 0.71429,-27.14286 -33.12104,-0.5367 -75.72318,-2.44246 -107.14286,0.57143 z"
       id="path3807"
       style="color:#000000;fill:#e6e6e6;fill-opacity:1;fill-rule:nonzero;stroke:#000000;stroke-width:1.5;stroke-linecap:round;stroke-linejoin:round;stroke-miterlimit:4;stroke-opacity:1;stroke-dasharray:none;stroke-dashoffset:0;marker:none;visibility:visible;display:inline;overflow:visible;enable-background:accumulate" />
    <path
       d="m 77.857143,761.79075 -1.142857,51.28572"
       id="path3870"
       style="color:#000000;fill:#cccccc;fill-opacity:1;fill-rule:nonzero;stroke:#000000;stroke-width:1.5;stroke-linecap:round;stroke-linejoin:round;stroke-miterlimit:4;stroke-opacity:1;stroke-dasharray:none;stroke-dashoffset:0;marker:none;visibility:visible;display:inline;overflow:visible;enable-background:accumulate" />
    <text
       x="79.308807"
       y="912.07648"
       id="text3878"
       xml:space="preserve"
       style="font-size:15px;font-style:normal;font-weight:normal;text-align:center;line-height:125%;letter-spacing:0px;word-spacing:0px;text-anchor:middle;fill:#000000;fill-opacity:1;stroke:none;font-family:Sans"><tspan
         x="79.308807"
         y="912.07648"
         id="tspan3880">hết giờ</tspan><tspan
         x="79.308807"
         y="931.38599"
         id="tspan3882">chưa?</tspan></text>
    <path
       d="M 24.285715,913.4336 C 14.068696,913.6271 11.494686,912.7193 4.571429,912.7193 4.087537,891.04052 3.674847,852.18515 5.285714,836.07647 13.705117,834.88101 22.442723,835.36218 31,835.36218"
       id="path3886"
       style="color:#000000;fill:none;stroke:#000000;stroke-width:1.5;stroke-linecap:round;stroke-linejoin:round;stroke-miterlimit:4;stroke-opacity:1;stroke-dasharray:none;stroke-dashoffset:0;marker:none;visibility:visible;display:inline;overflow:visible;enable-background:accumulate" />
    <path
       d="m 19.571429,823.21933 c 2.864869,2.00106 9.848931,9.52955 12.857143,11.78571 -3.46474,2.84437 -9.587431,8.85467 -14.285715,10.71428"
       id="path3888"
       style="color:#000000;fill:none;stroke:#000000;stroke-width:1.5;stroke-linecap:round;stroke-linejoin:round;stroke-miterlimit:4;stroke-opacity:1;stroke-dasharray:none;stroke-dashoffset:0;marker:none;visibility:visible;display:inline;overflow:visible;enable-background:accumulate" />
    <path
       d="m 67.214286,867.86218 c 4.40368,4.67649 7.600605,8.70668 10.357143,12.14286 4.587369,-3.76667 9.328951,-8.14568 12.142861,-11.42857"
       id="path3890"
       style="color:#000000;fill:none;stroke:#000000;stroke-width:1.5;stroke-linecap:round;stroke-linejoin:round;stroke-miterlimit:4;stroke-opacity:1;stroke-dasharray:none;stroke-dashoffset:0;marker:none;visibility:visible;display:inline;overflow:visible;enable-background:accumulate" />
    <path
       d="m 65.642857,799.86218 c 4.420106,6.19342 9.480086,11.2982 11.428572,13.57143 3.05025,-3.86834 7.45623,-7.15636 10.714281,-11.78572"
       id="path3892"
       style="color:#000000;fill:none;stroke:#000000;stroke-width:1.5;stroke-linecap:round;stroke-linejoin:round;stroke-miterlimit:4;stroke-opacity:1;stroke-dasharray:none;stroke-dashoffset:0;marker:none;visibility:visible;display:inline;overflow:visible;enable-background:accumulate" />
    <text
       x="21.199148"
       y="905.36224"
       id="text3894"
       xml:space="preserve"
       style="font-size:15px;font-style:normal;font-weight:normal;text-align:center;line-height:125%;letter-spacing:0px;word-spacing:0px;text-anchor:middle;fill:#000000;fill-opacity:1;stroke:none;font-family:Sans"><tspan
         x="21.199148"
         y="905.36224"
         id="tspan3896">sai</tspan></text>
    <text
       x="78.737381"
       y="830.64789"
       id="text3898"
       xml:space="preserve"
       style="font-size:15px;font-style:normal;font-weight:normal;text-align:center;line-height:125%;letter-spacing:0px;word-spacing:0px;text-anchor:middle;fill:#000000;fill-opacity:1;stroke:none;font-family:Sans"><tspan
         x="78.737381"
         y="830.64789"
         id="tspan3902">chiếu bắt</tspan><tspan
         x="78.737381"
         y="849.9574"
         id="tspan3906">đầu chơi</tspan></text>
    <path
       d="m 132.78571,912.1479 c 2.78237,-1.8957 33.85587,-1.4286 45.57143,-1.4286 1.69929,-20.73299 0.7305,-57.93818 2.14286,-76.42855 11.59283,-1.15414 21.55298,-0.35714 24.07143,-0.35714"
       id="path3908"
       style="color:#000000;fill:none;stroke:#000000;stroke-width:1.5;stroke-linecap:round;stroke-linejoin:round;stroke-miterlimit:4;stroke-opacity:1;stroke-dasharray:none;stroke-dashoffset:0;marker:none;visibility:visible;display:inline;overflow:visible;enable-background:accumulate" />
    <path
       d="m 189.57143,823.21933 c 6.49811,2.94332 11.61369,7.19949 15.71428,10.71428 -3.67256,3.65185 -11.65883,9.25673 -13.21428,11.07143"
       id="path3910"
       style="color:#000000;fill:none;stroke:#000000;stroke-width:1.5;stroke-linecap:round;stroke-linejoin:round;stroke-miterlimit:4;stroke-opacity:1;stroke-dasharray:none;stroke-dashoffset:0;marker:none;visibility:visible;display:inline;overflow:visible;enable-background:accumulate" />
    <path
       d="m 76.714286,853.93361 c 0.856347,3.2384 1.071428,19.40944 1.071428,25"
       id="path3914"
       style="color:#000000;fill:#cccccc;fill-opacity:1;fill-rule:nonzero;stroke:#000000;stroke-width:1.5;stroke-linecap:round;stroke-linejoin:round;stroke-miterlimit:4;stroke-opacity:1;stroke-dasharray:none;stroke-dashoffset:0;marker:none;visibility:visible;display:inline;overflow:visible;enable-background:accumulate" />
    <text
       x="155.48349"
       y="905.00507"
       id="text3916"
       xml:space="preserve"
       style="font-size:15px;font-style:normal;font-weight:normal;text-align:center;line-height:125%;letter-spacing:0px;word-spacing:0px;text-anchor:middle;fill:#000000;fill-opacity:1;stroke:none;font-family:Sans"><tspan
         x="155.48349"
         y="905.00507"
         id="tspan3918">đúng</tspan></text>
    <text
       x="245.89548"
       y="828.03217"
       id="text3920"
       xml:space="preserve"
       style="font-size:15px;font-style:normal;font-weight:normal;text-align:center;line-height:125%;letter-spacing:0px;word-spacing:0px;text-anchor:middle;fill:#000000;fill-opacity:1;stroke:none;font-family:Sans"><tspan
         x="245.89548"
         y="828.03217"
         id="tspan3922">nâng cấp</tspan><tspan
         x="245.89548"
         y="847.34167"
         id="tspan3924">trò chơi</tspan></text>
    <text
       x="424.92523"
       y="836.09308"
       id="text3926"
       xml:space="preserve"
       style="font-size:15px;font-style:normal;font-weight:normal;text-align:center;line-height:125%;letter-spacing:0px;word-spacing:0px;text-anchor:middle;fill:#000000;fill-opacity:1;stroke:none;font-family:Sans"><tspan
         x="424.92523"
         y="836.09308"
         id="tspan3928">chiếu bại trận</tspan></text>
    <path
       d="m 250.65997,854.29617 c 0,9.09137 0,18.18274 0,27.27411"
       id="path3930"
       style="color:#000000;fill:#cccccc;fill-opacity:1;fill-rule:nonzero;stroke:#000000;stroke-width:1.5;stroke-linecap:round;stroke-linejoin:round;stroke-miterlimit:4;stroke-opacity:1;stroke-dasharray:none;stroke-dashoffset:0;marker:none;visibility:visible;display:inline;overflow:visible;enable-background:accumulate" />
    <path
       d="m 239.34626,869.34744 c 7.05895,7.09468 7.06512,11.39837 10.80863,13.73807 3.49876,-4.50186 7.92594,-8.52535 11.06118,-13.43503"
       id="path3932"
       style="color:#000000;fill:none;stroke:#000000;stroke-width:1.5;stroke-linecap:round;stroke-linejoin:round;stroke-miterlimit:4;stroke-opacity:1;stroke-dasharray:none;stroke-dashoffset:0;marker:none;visibility:visible;display:inline;overflow:visible;enable-background:accumulate" />
    <path
       d="m 196.61681,912.885 c 19.98325,-13.27459 38.66123,-23.73354 53.53808,-30.28426 18.41164,7.91883 42.50425,21.05034 54.04316,30.94076 -13.60131,7.8043 -38.92608,25.4934 -50.50763,31.1633 -19.71626,-8.7435 -38.98558,-21.0765 -57.07361,-31.8198 z"
       id="path3936"
       style="color:#000000;fill:#e6e6e6;fill-opacity:1;fill-rule:nonzero;stroke:#000000;stroke-width:1.5;stroke-linecap:round;stroke-linejoin:round;stroke-miterlimit:4;stroke-opacity:1;stroke-dasharray:none;stroke-dashoffset:0;marker:none;visibility:visible;display:inline;overflow:visible;enable-background:accumulate" />
    <text
       x="251.22195"
       y="911.36981"
       id="text3938"
       xml:space="preserve"
       style="font-size:15px;font-style:normal;font-weight:normal;text-align:center;line-height:125%;letter-spacing:0px;word-spacing:0px;text-anchor:middle;fill:#000000;fill-opacity:1;stroke:none;font-family:Sans"><tspan
         x="251.22195"
         y="911.36981"
         id="tspan3940">hết mạng</tspan><tspan
         x="251.22195"
         y="930.67932"
         id="tspan3942">chưa?</tspan></text>
    <path
       d="m 304.13714,912.885 c 16.38123,0.3225 26.7005,-1.5152 38.00255,-1.5152 0.40108,-27.1636 -1.01015,-55.23376 -1.01015,-80.83252 12.11252,-0.856 16.96814,1.53161 28.4061,-1.01016"
       id="path3944"
       style="color:#000000;fill:none;stroke:#000000;stroke-width:1.5;stroke-linecap:round;stroke-linejoin:round;stroke-miterlimit:4;stroke-opacity:1;stroke-dasharray:none;stroke-dashoffset:0;marker:none;visibility:visible;display:inline;overflow:visible;enable-background:accumulate" />
    <path
       d="m 357.91888,821.4256 c 6.8084,3.65121 9.25445,8.07963 12.62691,9.09137 -2.30019,3.30768 -9.72255,8.41771 -12.12183,11.61676"
       id="path3946"
       style="color:#000000;fill:none;stroke:#000000;stroke-width:1.5;stroke-linecap:round;stroke-linejoin:round;stroke-miterlimit:4;stroke-opacity:1;stroke-dasharray:none;stroke-dashoffset:0;marker:none;visibility:visible;display:inline;overflow:visible;enable-background:accumulate" />
    <text
       x="320.64343"
       y="905.00507"
       id="text3948"
       xml:space="preserve"
       style="font-size:15px;font-style:normal;font-weight:normal;text-align:center;line-height:125%;letter-spacing:0px;word-spacing:0px;text-anchor:middle;fill:#000000;fill-opacity:1;stroke:none;font-family:Sans"><tspan
         x="320.64343"
         y="905.00507"
         id="tspan3950">đúng</tspan></text>
    <path
       d="m 198.71429,1017.7908 c 15.28423,-10.9415 36.04339,-21.8897 55,-31.8572 22.32085,12.313 41.75571,20.4029 59.28571,35.4286 -22.22517,9.8816 -40.10593,21.7355 -55,29.1428 -20.89876,-12.6065 -36.04633,-18.2684 -59.28571,-32.7142 z"
       id="path3956"
       style="color:#000000;fill:#e6e6e6;fill-opacity:1;fill-rule:nonzero;stroke:#000000;stroke-width:1.5;stroke-linecap:round;stroke-linejoin:round;stroke-miterlimit:4;stroke-opacity:1;stroke-dasharray:none;stroke-dashoffset:0;marker:none;visibility:visible;display:inline;overflow:visible;enable-background:accumulate" />
    <text
       x="256.0791"
       y="1012.0841"
       id="text3958"
       xml:space="preserve"
       style="font-size:15px;font-style:normal;font-weight:normal;text-align:center;line-height:125%;letter-spacing:0px;word-spacing:0px;text-anchor:middle;fill:#000000;fill-opacity:1;stroke:none;font-family:Sans"><tspan
         x="256.0791"
         y="1012.0841"
         id="tspan3962">thắng</tspan><tspan
         x="256.0791"
         y="1031.3937"
         id="tspan3966">chưa?</tspan></text>
    <path
       d="m 253.14286,944.6479 c 0,6.4286 0,34.8571 0,41.2857"
       id="path3968"
       style="color:#000000;fill:none;stroke:#000000;stroke-width:1.5;stroke-linecap:round;stroke-linejoin:round;stroke-miterlimit:4;stroke-opacity:1;stroke-dasharray:none;stroke-dashoffset:0;marker:none;visibility:visible;display:inline;overflow:visible;enable-background:accumulate" />
    <text
       x="271.28629"
       y="957.86218"
       id="text3972"
       xml:space="preserve"
       style="font-size:15px;font-style:normal;font-weight:normal;text-align:center;line-height:125%;letter-spacing:0px;word-spacing:0px;text-anchor:middle;fill:#000000;fill-opacity:1;stroke:none;font-family:Sans"><tspan
         x="271.28629"
         y="957.86218"
         id="tspan3974">sai</tspan></text>
    <path
       d="m 432,944.3622 c 0.95414,5.5661 1,15.3998 1,18 61.25495,0.3958 48.43838,1 104,1 0.99899,-37.1321 1.08496,-172.01771 1.62132,-202.1041"
       id="path3980"
       style="color:#000000;fill:none;stroke:#000000;stroke-width:1.5;stroke-linecap:round;stroke-linejoin:round;stroke-miterlimit:4;stroke-opacity:1;stroke-dasharray:none;stroke-dashoffset:0;marker:none;visibility:visible;display:inline;overflow:visible;enable-background:accumulate" />
    <text
       x="200.28625"
       y="1004.8622"
       id="text3982"
       xml:space="preserve"
       style="font-size:15px;font-style:normal;font-weight:normal;text-align:center;line-height:125%;letter-spacing:0px;word-spacing:0px;text-anchor:middle;fill:#000000;fill-opacity:1;stroke:none;font-family:Sans"><tspan
         x="200.28625"
         y="1004.8622"
         id="tspan3984">sai</tspan></text>
    <text
       x="332.64343"
       y="1012.005"
       id="text3986"
       xml:space="preserve"
       style="font-size:15px;font-style:normal;font-weight:normal;text-align:center;line-height:125%;letter-spacing:0px;word-spacing:0px;text-anchor:middle;fill:#000000;fill-opacity:1;stroke:none;font-family:Sans"><tspan
         x="332.64343"
         y="1012.005"
         id="tspan3988">đúng</tspan></text>
    <text
       x="637.7312"
       y="831.86218"
       id="text3992"
       xml:space="preserve"
       style="font-size:15px;font-style:normal;font-weight:normal;text-align:center;line-height:125%;letter-spacing:0px;word-spacing:0px;text-anchor:middle;fill:#000000;fill-opacity:1;stroke:none;font-family:Sans"><tspan
         x="637.7312"
         y="831.86218"
         id="tspan3994">chiếu thấng</tspan></text>
    <path
       d="m 198,1017.3622 c -7.78941,0.6848 -14.85752,-0.4858 -20,-1 0.39603,-31.6262 0.82843,-79.9642 0.82843,-105.4533"
       id="path3998"
       style="color:#000000;fill:none;stroke:#000000;stroke-width:1.5;stroke-linecap:round;stroke-linejoin:round;stroke-miterlimit:4;stroke-opacity:1;stroke-dasharray:none;stroke-dashoffset:0;marker:none;visibility:visible;display:inline;overflow:visible;enable-background:accumulate" />
    <text
       x="429.79764"
       y="911.36981"
       id="text4002"
       xml:space="preserve"
       style="font-size:15px;font-style:normal;font-weight:normal;text-align:center;line-height:125%;letter-spacing:0px;word-spacing:0px;text-anchor:middle;fill:#000000;fill-opacity:1;stroke:none;font-family:Sans"><tspan
         x="429.79764"
         y="911.36981"
         id="tspan4006">hết giờ</tspan><tspan
         x="429.79764"
         y="930.67932"
         id="tspan4010">chưa?</tspan></text>
    <text
       x="429.79764"
       y="911.36981"
       id="text4014"
       xml:space="preserve"
       style="font-size:15px;font-style:normal;font-weight:normal;text-align:center;line-height:125%;letter-spacing:0px;word-spacing:0px;text-anchor:middle;fill:#000000;fill-opacity:1;stroke:none;font-family:Sans"><tspan
         x="429.79764"
         y="911.36981"
         id="tspan4016">hết giờ</tspan><tspan
         x="429.79764"
         y="930.67932"
         id="tspan4018">chưa?</tspan></text>
    <path
       d="m 372.46508,912.986 c 19.69303,-13.87638 42.1399,-27.63461 54.44722,-38.18374 16.02918,14.21896 45.94236,31.10047 57.27564,38.18374 -18.3702,10.6703 -42.3245,27.7789 -52.32589,33.234 -15.19834,-7.1195 -41.3862,-19.7258 -59.39697,-33.234 z"
       id="path4020"
       style="color:#000000;fill:#e6e6e6;fill-opacity:1;fill-rule:nonzero;stroke:#000000;stroke-width:1.5;stroke-linecap:round;stroke-linejoin:round;stroke-miterlimit:4;stroke-opacity:1;stroke-dasharray:none;stroke-dashoffset:0;marker:none;visibility:visible;display:inline;overflow:visible;enable-background:accumulate" />
    <text
       x="428.29721"
       y="909.24799"
       id="text4022"
       xml:space="preserve"
       style="font-size:15px;font-style:normal;font-weight:normal;text-align:center;line-height:125%;letter-spacing:0px;word-spacing:0px;text-anchor:middle;fill:#000000;fill-opacity:1;stroke:none;font-family:Sans"><tspan
         x="428.29721"
         y="909.24799"
         id="tspan4024">hết giờ</tspan><tspan
         x="428.29721"
         y="928.5575"
         id="tspan4026">chưa?</tspan></text>
    <path
       d="m 427.26585,845.45733 c -0.67701,10.52162 -0.35355,25.69238 -0.35355,29.34493"
       id="path4032"
       style="color:#000000;fill:#cccccc;fill-opacity:1;fill-rule:nonzero;stroke:#000000;stroke-width:1.5;stroke-linecap:round;stroke-linejoin:round;stroke-miterlimit:4;stroke-opacity:1;stroke-dasharray:none;stroke-dashoffset:0;marker:none;visibility:visible;display:inline;overflow:visible;enable-background:accumulate" />
    <path
       d="m 417.36635,861.01368 c 0.98821,3.41839 5.74679,7.42709 8.83884,12.37437 4.06093,-4.65535 6.80682,-7.51392 11.31371,-12.02082"
       id="path4034"
       style="color:#000000;fill:none;stroke:#000000;stroke-width:1.5;stroke-linecap:round;stroke-linejoin:round;stroke-miterlimit:4;stroke-opacity:1;stroke-dasharray:none;stroke-dashoffset:0;marker:none;visibility:visible;display:inline;overflow:visible;enable-background:accumulate" />
    <path
       d="m 479.94531,828.13322 c 12.70409,0.10327 29.62366,0.19964 39.59798,-0.70711 3.51977,27.27133 0,58.86505 0,83.43859 -10.37512,1.4484 -31.46042,1.4142 -35.35534,1.4142"
       id="path4036"
       style="color:#000000;fill:none;stroke:#000000;stroke-width:1.5;stroke-linecap:round;stroke-linejoin:round;stroke-miterlimit:4;stroke-opacity:1;stroke-dasharray:none;stroke-dashoffset:0;marker:none;visibility:visible;display:inline;overflow:visible;enable-background:accumulate" />
    <path
       d="m 492.31967,816.46595 c -3.51951,4.1388 -9.60625,8.02531 -12.72792,11.66726 6.57795,5.26365 13.48304,9.33691 14.49569,9.8995"
       id="path4038"
       style="color:#000000;fill:none;stroke:#000000;stroke-width:1.5;stroke-linecap:round;stroke-linejoin:round;stroke-miterlimit:4;stroke-opacity:1;stroke-dasharray:none;stroke-dashoffset:0;marker:none;visibility:visible;display:inline;overflow:visible;enable-background:accumulate" />
    <text
       x="498.65234"
       y="906.9505"
       id="text4040"
       xml:space="preserve"
       style="font-size:15px;font-style:normal;font-weight:normal;text-align:center;line-height:125%;letter-spacing:0px;word-spacing:0px;text-anchor:middle;fill:#000000;fill-opacity:1;stroke:none;font-family:Sans"><tspan
         x="498.65234"
         y="906.9505"
         id="tspan4042">sai</tspan></text>
    <text
       x="456.43915"
       y="956.97742"
       id="text4044"
       xml:space="preserve"
       style="font-size:15px;font-style:normal;font-weight:normal;text-align:center;line-height:125%;letter-spacing:0px;word-spacing:0px;text-anchor:middle;fill:#000000;fill-opacity:1;stroke:none;font-family:Sans"><tspan
         x="456.43915"
         y="956.97742"
         id="tspan4046">đúng</tspan></text>
    <path
       d="m 528.04938,773.82813 c 0.37315,0.57329 7.76293,-8.17805 10.60661,-12.72792 4.19322,3.30826 7.4094,10.70229 10.02081,13.31371"
       id="path4048"
       style="color:#000000;fill:none;stroke:#000000;stroke-width:1.5;stroke-linecap:round;stroke-linejoin:round;stroke-miterlimit:4;stroke-opacity:1;stroke-dasharray:none;stroke-dashoffset:0;marker:none;visibility:visible;display:inline;overflow:visible;enable-background:accumulate" />
    <path
       d="m 311,1020.3622 c 98.07521,-0.5255 140.04068,0 239,0 -1.66155,-54.712 -1,-141.55489 -1,-191.00002 l 36,-1"
       id="path4050"
       style="color:#000000;fill:none;stroke:#000000;stroke-width:1.5;stroke-linecap:round;stroke-linejoin:round;stroke-miterlimit:4;stroke-opacity:1;stroke-dasharray:none;stroke-dashoffset:0;marker:none;visibility:visible;display:inline;overflow:visible;enable-background:accumulate" />
    <path
       d="m 570,817.36218 c 5.25362,5.18623 9.84843,7.9882 15.5,10.5 -3.80803,3.79554 -14.89863,11.05597 -16,12"
       id="path4052"
       style="color:#000000;fill:none;stroke:#000000;stroke-width:1.5;stroke-linecap:round;stroke-linejoin:round;stroke-miterlimit:4;stroke-opacity:1;stroke-dasharray:none;stroke-dashoffset:0;marker:none;visibility:visible;display:inline;overflow:visible;enable-background:accumulate" />
    <text
       x="332.64343"
       y="1012.005"
       id="text4054"
       xml:space="preserve"
       style="font-size:15px;font-style:normal;font-weight:normal;text-align:center;line-height:125%;letter-spacing:0px;word-spacing:0px;text-anchor:middle;fill:#000000;fill-opacity:1;stroke:none;font-family:Sans"><tspan
         x="332.64343"
         y="1012.005"
         id="tspan4056">đúng</tspan></text>
    <path
       d="m 635.60931,842.27535 c 1.48358,15.12351 0.7071,25.06939 0.7071,33.94112"
       id="path4058"
       style="color:#000000;fill:#cccccc;fill-opacity:1;fill-rule:nonzero;stroke:#000000;stroke-width:1.5;stroke-linecap:round;stroke-linejoin:round;stroke-miterlimit:4;stroke-opacity:1;stroke-dasharray:none;stroke-dashoffset:0;marker:none;visibility:visible;display:inline;overflow:visible;enable-background:accumulate" />
    <path
       d="m 622.88138,863.48855 c 3.99146,6.02703 7.98558,8.72941 12.89214,12.93503 4.60774,-4.97322 7.42443,-7.26363 11.27081,-12.39213"
       id="path4060"
       style="color:#000000;fill:none;stroke:#000000;stroke-width:1.5;stroke-linecap:round;stroke-linejoin:round;stroke-miterlimit:4;stroke-opacity:1;stroke-dasharray:none;stroke-dashoffset:0;marker:none;visibility:visible;display:inline;overflow:visible;enable-background:accumulate" />
    <path
       d="m 583.99051,915.8144 c 20.65087,-16.58845 34.39447,-26.30843 52.16169,-39.14082 18.79001,11.29071 40.81842,26.05497 53.19722,38.43372 -17.70565,11.4442 -35.55562,24.1529 -50.20458,35.3554 -28.33654,-16.3036 -40.25797,-25.338 -55.15433,-34.6483 z"
       id="path4062"
       style="color:#000000;fill:#e6e6e6;fill-opacity:1;fill-rule:nonzero;stroke:#000000;stroke-width:1.5;stroke-linecap:round;stroke-linejoin:round;stroke-miterlimit:4;stroke-opacity:1;stroke-dasharray:none;stroke-dashoffset:0;marker:none;visibility:visible;display:inline;overflow:visible;enable-background:accumulate" />
    <text
       x="638.79321"
       y="909.24799"
       id="text4064"
       xml:space="preserve"
       style="font-size:15px;font-style:normal;font-weight:normal;text-align:center;line-height:125%;letter-spacing:0px;word-spacing:0px;text-anchor:middle;fill:#000000;fill-opacity:1;stroke:none;font-family:Sans"><tspan
         x="638.79321"
         y="909.24799"
         id="tspan4066">hết giờ</tspan><tspan
         x="638.79321"
         y="928.5575"
         id="tspan4068">chưa?</tspan></text>
    <path
       d="m 638.43773,950.4627 c -0.5135,-0.5283 0.15214,12.2801 0.70711,18.3848 25.97321,2.425 48.23112,0.9289 71.07464,0.9289 1.00191,-63.69885 1.17157,-141.7941 1.17157,-206.79751"
       id="path4070"
       style="color:#000000;fill:none;stroke:#000000;stroke-width:1.5;stroke-linecap:round;stroke-linejoin:round;stroke-miterlimit:4;stroke-opacity:1;stroke-dasharray:none;stroke-dashoffset:0;marker:none;visibility:visible;display:inline;overflow:visible;enable-background:accumulate" />
    <path
       d="m 699.37023,775.70681 c 4.90098,-5.51545 10.01638,-10.93504 12.02082,-14.14214 3.13896,4.91968 8.26545,11.49201 11.31371,15.55635"
       id="path4072"
       style="color:#000000;fill:none;stroke:#000000;stroke-width:1.5;stroke-linecap:round;stroke-linejoin:round;stroke-miterlimit:4;stroke-opacity:1;stroke-dasharray:none;stroke-dashoffset:0;marker:none;visibility:visible;display:inline;overflow:visible;enable-background:accumulate" />
    <text
       x="578.88489"
       y="910.03632"
       id="text4078"
       xml:space="preserve"
       style="font-size:15px;font-style:normal;font-weight:normal;text-align:center;line-height:125%;letter-spacing:0px;word-spacing:0px;text-anchor:middle;fill:#000000;fill-opacity:1;stroke:none;font-family:Sans"><tspan
         x="578.88489"
         y="910.03632"
         id="tspan4080">sai</tspan></text>
    <text
       x="663.62146"
       y="963.34137"
       id="text4082"
       xml:space="preserve"
       style="font-size:15px;font-style:normal;font-weight:normal;text-align:center;line-height:125%;letter-spacing:0px;word-spacing:0px;text-anchor:middle;fill:#000000;fill-opacity:1;stroke:none;font-family:Sans"><tspan
         x="663.62146"
         y="963.34137"
         id="tspan4084">đúng</tspan></text>
    <path
       d="m 168.5,925.3622 9.5,-14 11.5,12.5"
       id="path4086"
       style="color:#000000;fill:none;stroke:#000000;stroke-width:1.5;stroke-linecap:round;stroke-linejoin:round;stroke-miterlimit:4;stroke-opacity:1;stroke-dasharray:none;stroke-dashoffset:0;marker:none;visibility:visible;display:inline;overflow:visible;enable-background:accumulate" />
    <path
       d="m 582.5,915.8622 c -9.02388,0 -25.14842,0 -32.5,0"
       id="path4088"
       style="color:#000000;fill:#cccccc;fill-opacity:1;fill-rule:nonzero;stroke:#000000;stroke-width:1.5;stroke-linecap:round;stroke-linejoin:round;stroke-miterlimit:4;stroke-opacity:1;stroke-dasharray:none;stroke-dashoffset:0;marker:none;visibility:visible;display:inline;overflow:visible;enable-background:accumulate" />
    <path
       d="m 563,904.8622 c -0.97493,0.4637 -10.21803,7.171 -13.5,11 2.33435,4.6317 9.82463,8.6354 12,10.5"
       id="path4090"
       style="color:#000000;fill:none;stroke:#000000;stroke-width:1.5;stroke-linecap:round;stroke-linejoin:round;stroke-miterlimit:4;stroke-opacity:1;stroke-dasharray:none;stroke-dashoffset:0;marker:none;visibility:visible;display:inline;overflow:visible;enable-background:accumulate" />
  </g>
</svg>
